<svg id="Layer_1" data-name="Layer 1" xmlns="http://www.w3.org/2000/svg" viewBox="0 0 612 792"><defs><style>.cls-1{fill:#414042;}.cls-2{fill:#006838;}</style></defs><title>aspireArtboard 1</title><path class="cls-1" d="M190.71,508.23H179.53l-2.2,5.18h-4.28l10.06-22.36h4.09l10.09,22.36H193ZM189.34,505l-4.22-9.77L180.94,505Z"/><path class="cls-1" d="M197.65,511.72l1.53-3a11.47,11.47,0,0,0,5.94,1.69c2.53,0,3.58-.7,3.58-1.88,0-3.26-10.54-.19-10.54-7,0-3.22,2.91-5.33,7.51-5.33a13.58,13.58,0,0,1,6.39,1.47l-1.54,3a9.33,9.33,0,0,0-4.89-1.28c-2.42,0-3.57.8-3.57,1.92,0,3.45,10.54.38,10.54,7.06,0,3.2-2.94,5.27-7.73,5.27A13.58,13.58,0,0,1,197.65,511.72Z"/><path class="cls-1" d="M234.16,504.88a8.3,8.3,0,0,1-8.65,8.75,7,7,0,0,1-5.47-2.3v8.28h-4V496.35h3.8v2.24a7,7,0,0,1,5.66-2.43A8.3,8.3,0,0,1,234.16,504.88Zm-4,0a5.07,5.07,0,1,0-5.05,5.33A5,5,0,0,0,230.11,504.88Z"/><path class="cls-1" d="M237.42,491.14a2.43,2.43,0,0,1,2.56-2.39,2.37,2.37,0,0,1,2.55,2.3,2.56,2.56,0,0,1-5.11.09Zm.55,5.21h4v17.06h-4Z"/><path class="cls-1" d="M257.07,496.16V500a5.47,5.47,0,0,0-.93-.1c-3,0-4.95,1.79-4.95,5.27v8.28h-4V496.35H251v2.49C252.15,497.05,254.23,496.16,257.07,496.16Z"/><path class="cls-1" d="M276.27,506.16H262.89c.48,2.49,2.55,4.09,5.52,4.09a6.09,6.09,0,0,0,4.63-1.86l2.15,2.46a8.66,8.66,0,0,1-6.87,2.78c-5.72,0-9.43-3.67-9.43-8.75a8.48,8.48,0,0,1,8.82-8.72c5,0,8.63,3.48,8.63,8.81C276.34,505.29,276.3,505.77,276.27,506.16Zm-13.42-2.65h9.68a4.65,4.65,0,0,0-4.82-4.16A4.72,4.72,0,0,0,262.85,503.51Z"/><path class="cls-1" d="M287.49,511l1.43-3.22a12.4,12.4,0,0,0,7.38,2.46c3.49,0,4.95-1.25,4.95-2.91,0-4.82-13.28-1.66-13.28-10,0-3.61,2.87-6.67,9-6.67a14.13,14.13,0,0,1,7.45,2l-1.31,3.22a12.47,12.47,0,0,0-6.17-1.75c-3.45,0-4.85,1.34-4.85,3,0,4.76,13.25,1.66,13.25,9.87,0,3.58-2.9,6.65-9,6.65C292.82,513.73,289.34,512.64,287.49,511Z"/><path class="cls-1" d="M307.68,504.88c0-5.11,3.83-8.72,9.07-8.72s9.1,3.61,9.1,8.72-3.8,8.75-9.1,8.75S307.68,510,307.68,504.88Zm14.15,0a5.07,5.07,0,1,0-5.08,5.33A5,5,0,0,0,321.83,504.88Z"/><path class="cls-1" d="M329.69,489.71h4v23.7h-4Z"/><path class="cls-1" d="M355.44,496.35v17.06h-3.8v-2.17a7,7,0,0,1-5.5,2.39c-4.37,0-7.34-2.39-7.34-7.54v-9.74h4v9.2c0,3.1,1.47,4.57,4,4.57,2.78,0,4.67-1.73,4.67-5.15v-8.62Z"/><path class="cls-1" d="M370.93,512.48a6.22,6.22,0,0,1-3.83,1.15c-3.74,0-5.88-2-5.88-5.75v-8.21h-2.81v-3.19h2.81v-3.9h4v3.9h4.56v3.19h-4.56v8.12c0,1.66.83,2.55,2.36,2.55a3.6,3.6,0,0,0,2.24-.7Z"/><path class="cls-1" d="M373.68,491.14a2.43,2.43,0,0,1,2.56-2.39,2.37,2.37,0,0,1,2.55,2.3,2.56,2.56,0,0,1-5.11.09Zm.55,5.21h4v17.06h-4Z"/><path class="cls-1" d="M382.05,504.88c0-5.11,3.84-8.72,9.08-8.72s9.1,3.61,9.1,8.72-3.8,8.75-9.1,8.75S382.05,510,382.05,504.88Zm14.15,0a5,5,0,0,0-5.07-5.34c-2.88,0-5.05,2.08-5.05,5.34a5.07,5.07,0,1,0,10.12,0Z"/><path class="cls-1" d="M420.87,503.63v9.78h-4v-9.27c0-3-1.51-4.5-4.06-4.5-2.84,0-4.76,1.72-4.76,5.14v8.63h-4V496.35h3.8v2.2a7.42,7.42,0,0,1,5.88-2.39C417.83,496.16,420.87,498.49,420.87,503.63Z"/><path class="cls-1" d="M424,511.72l1.54-3a11.47,11.47,0,0,0,5.94,1.69c2.52,0,3.57-.7,3.57-1.88,0-3.26-10.54-.19-10.54-7,0-3.22,2.91-5.33,7.51-5.33a13.52,13.52,0,0,1,6.39,1.47l-1.53,3a9.33,9.33,0,0,0-4.89-1.28c-2.43,0-3.58.8-3.58,1.92,0,3.45,10.54.38,10.54,7.06,0,3.2-2.94,5.27-7.73,5.27A13.64,13.64,0,0,1,424,511.72Z"/><path class="cls-2" d="M336.41,382.3c-10.25.84-15.84,4.8-15.84,11.36,0,7.52,11,10,23.74,12.95l3.32.76Zm19.33,72a17.9,17.9,0,0,1-3,1.61H371.1l-19.83-44.36-2-.48c-1.91-.46-3.82-.89-5.7-1.33-10.2-2.33-19.39-4.43-23.69-9.25l-2.54-6.13c0-.23,0-.47,0-.71,0-4,1.86-12.76,17.69-14.47.55-.07,1.11-.12,1.69-.16l-7.82-17.49-1.65.26c-8.49,1.43-15.12,4.21-20.13,7.83-.46.32-.91.65-1.33,1l15.36,37.11H296.78c.26.55.55,1.09.85,1.61,6.91,11.79,22.75,15.47,37.13,18.81,14.1,3.28,26.28,6.11,26.28,16.34A11.46,11.46,0,0,1,355.74,454.31Zm-61.8-45H279.56l22-53.13,4.32,10.42a51.71,51.71,0,0,1,20-7.83L314.81,334H288.67L235,454.31h25.74l10.94-26.48h48.73C309.41,424.51,298.94,419.46,293.94,409.35ZM334,431.3l-1.51-.35,9.66,23.36h4.91c7-1.51,10.72-4.87,10.72-9.81C357.81,436.83,346.79,434.27,334,431.3Z"/><path class="cls-2" d="M319.9,400.5l-2.54-6.13-10.24-24.74c-.46.32-.91.65-1.33,1s-.88.71-1.3,1.09l14.25,34.4H296.07c.21.56.45,1.09.71,1.62s.55,1.09.85,1.61h25.94Zm0,0-2.54-6.13-10.24-24.74c-.46.32-.91.65-1.33,1s-.88.71-1.3,1.09l14.25,34.4H296.07c.21.56.45,1.09.71,1.62s.55,1.09.85,1.61h25.94Zm-2.54-6.13a9.76,9.76,0,0,0,2.54,6.13Zm0,0a9.76,9.76,0,0,0,2.54,6.13Zm2.54,6.13-2.54-6.13-10.24-24.74c-.46.32-.91.65-1.33,1l15.36,37.11H296.78c.26.55.55,1.09.85,1.61h25.94Zm0,0-2.54-6.13-10.24-24.74c-.46.32-.91.65-1.33,1l15.36,37.11H296.78c.26.55.55,1.09.85,1.61h25.94Zm32.87,55.42a26.64,26.64,0,0,1-5.28,1.62h26.1l-20.32-45.46-2-.52-2-.48,19.32,43.23H355.74A17.9,17.9,0,0,1,352.77,455.92Zm-22.19-94.59q-.85.09-1.68.21l-1.65.26L335,379.19c.55-.07,1.11-.12,1.69-.16s1.14-.07,1.73-.09ZM319.9,400.5l-2.54-6.13-10.24-24.74c-.46.32-.91.65-1.33,1l15.36,37.11H296.78c.26.55.55,1.09.85,1.61h25.94Zm0,0-2.54-6.13-10.24-24.74c-.46.32-.91.65-1.33,1l15.36,37.11H296.78c.26.55.55,1.09.85,1.61h25.94Zm0,0-2.54-6.13-10.24-24.74c-.46.32-.91.65-1.33,1l15.36,37.11H296.78c.26.55.55,1.09.85,1.61h25.94Zm-2.54-6.13a9.76,9.76,0,0,0,2.54,6.13Zm2.54,6.13-2.54-6.13-10.24-24.74c-.46.32-.91.65-1.33,1s-.88.71-1.3,1.09l14.25,34.4H296.07c.21.56.45,1.09.71,1.62s.55,1.09.85,1.61h25.94Z"/><path class="cls-1" d="M353.27,412.08l-2-.52-2-.48c-1.91-.46-3.82-.89-5.7-1.33-10.2-2.33-19.39-4.43-23.69-9.25l-2.54-6.13c0-.23,0-.47,0-.71,0-4,1.86-12.76,17.69-14.47.55-.07,1.11-.12,1.69-.16s1.14-.07,1.73-.09c.77,0,1.56-.05,2.39-.05a66,66,0,0,1,31.1,8.37L379,370c-10-5.89-23.69-9.24-38-9.24a84.69,84.69,0,0,0-10.42.6q-.85.09-1.68.21l-1.65.26c-8.49,1.43-15.12,4.21-20.13,7.83-.46.32-.91.65-1.33,1s-.88.71-1.3,1.09A30.46,30.46,0,0,0,294.08,395a29.47,29.47,0,0,0,2,11.14c.21.56.45,1.09.71,1.62s.55,1.09.85,1.61c6.91,11.79,22.75,15.47,37.13,18.81,14.1,3.28,26.28,6.11,26.28,16.34a11.46,11.46,0,0,1-5.3,9.81,17.9,17.9,0,0,1-3,1.61,26.64,26.64,0,0,1-5.28,1.62,51.24,51.24,0,0,1-10.27.91,69.91,69.91,0,0,1-37.34-11.19l-7.71,17.12c10.23,7.35,28,12.23,44.88,12.23,28.71,0,47.25-13.38,47.25-34.09C384.3,423,369.3,416.29,353.27,412.08Z"/><path class="cls-1" d="M317.36,394.37a9.76,9.76,0,0,0,2.54,6.13Z"/></svg>