<svg xmlns="http://www.w3.org/2000/svg" viewBox="0 0 96.56 15.61"><defs><style>.cls-1{fill:#ef4136;}.cls-2{fill:#414042;}</style></defs><title>BACKGRAsset 8</title><g id="Layer_2" data-name="Layer 2"><g id="Layer_1-2" data-name="Layer 1"><path class="cls-1" d="M6.62,7.34H2.16l-.92,2.1H0L3.8,1H5L8.8,9.44H7.54Zm-.42-1L4.39,2.27,2.58,6.38Z"/><path class="cls-1" d="M8.8,8.77l.48-.91a4.1,4.1,0,0,0,2.23.65c1.06,0,1.51-.32,1.51-.86,0-1.43-4-.19-4-2.72C9,3.79,10,3,11.65,3A4.66,4.66,0,0,1,14,3.6l-.5.91A3.31,3.31,0,0,0,11.64,4c-1,0-1.5.37-1.5.87,0,1.5,4,.28,4,2.75,0,1.15-1.06,1.88-2.75,1.88A4.56,4.56,0,0,1,8.8,8.77Z"/><path class="cls-1" d="M22,6.26a3.09,3.09,0,0,1-3.22,3.25,2.73,2.73,0,0,1-2.22-1v3.29H15.38V3.08h1.11v1A2.69,2.69,0,0,1,18.75,3,3.09,3.09,0,0,1,22,6.26Zm-1.17,0a2.14,2.14,0,1,0-4.28,0,2.14,2.14,0,1,0,4.28,0Z"/><path class="cls-1" d="M23.14,1.12a.76.76,0,0,1,.78-.76.74.74,0,0,1,.77.73.75.75,0,0,1-.77.77A.74.74,0,0,1,23.14,1.12Zm.2,2h1.15V9.44H23.34Z"/><path class="cls-1" d="M29.88,3V4.14h-.27a1.89,1.89,0,0,0-2,2.14V9.44H26.46V3.08h1.1V4.15A2.44,2.44,0,0,1,29.88,3Z"/><path class="cls-1" d="M36.73,6.64H31.57a2.14,2.14,0,0,0,2.3,1.86,2.39,2.39,0,0,0,1.84-.76l.63.74a3.18,3.18,0,0,1-2.5,1,3.18,3.18,0,0,1-3.42-3.25A3.11,3.11,0,0,1,33.61,3,3.07,3.07,0,0,1,36.75,6.3C36.75,6.39,36.74,6.54,36.73,6.64Zm-5.16-.82h4.08a2.05,2.05,0,0,0-4.08,0Z"/><path class="cls-2" d="M40.28,8.61l.66-1.46A5,5,0,0,0,43.71,8c1.16,0,1.62-.38,1.62-.9,0-1.57-4.88-.49-4.88-3.61C40.45,2.09,41.6.9,44,.9a5.65,5.65,0,0,1,2.91.74l-.6,1.48A4.66,4.66,0,0,0,44,2.46c-1.15,0-1.6.43-1.6,1,0,1.54,4.88.48,4.88,3.56,0,1.4-1.16,2.6-3.56,2.6A6,6,0,0,1,40.28,8.61Z"/><path class="cls-2" d="M47.76,6.21a3.55,3.55,0,1,1,3.55,3.32A3.32,3.32,0,0,1,47.76,6.21Zm5.19,0a1.66,1.66,0,1,0-3.3,0,1.66,1.66,0,1,0,3.3,0Z"/><path class="cls-2" d="M55.87.54h1.87v8.9H55.87Z"/><path class="cls-2" d="M65.76,3V9.44H64V8.67a2.61,2.61,0,0,1-2,.86,2.57,2.57,0,0,1-2.76-2.9V3h1.87V6.36c0,1.08.48,1.56,1.31,1.56s1.48-.56,1.48-1.74V3Z"/><path class="cls-2" d="M71.43,9.13a2.69,2.69,0,0,1-1.52.4A2.13,2.13,0,0,1,67.5,7.22V4.57h-1V3.13h1V1.56h1.87V3.13H71V4.57H69.37V7.2a.75.75,0,0,0,.8.85,1.3,1.3,0,0,0,.76-.24Z"/><path class="cls-2" d="M72,1A1.07,1.07,0,0,1,73.2,0a1,1,0,0,1,1.16,1A1.08,1.08,0,0,1,73.2,2.09,1.07,1.07,0,0,1,72,1Zm.22,2h1.87V9.44H72.26Z"/><path class="cls-2" d="M75.17,6.21a3.55,3.55,0,1,1,3.55,3.32A3.32,3.32,0,0,1,75.17,6.21Zm5.19,0a1.66,1.66,0,1,0-3.3,0,1.66,1.66,0,1,0,3.3,0Z"/><path class="cls-2" d="M89.88,5.74v3.7H88V6c0-1-.48-1.52-1.3-1.52s-1.55.55-1.55,1.74V9.44H83.28V3h1.79v.75a2.82,2.82,0,0,1,2.13-.85A2.53,2.53,0,0,1,89.88,5.74Z"/><path class="cls-2" d="M90.72,8.84l.62-1.34a4.45,4.45,0,0,0,2.25.62c.86,0,1.18-.23,1.18-.59,0-1-3.89,0-3.89-2.55,0-1.23,1.1-2.09,3-2.09a5.28,5.28,0,0,1,2.48.56l-.62,1.34a3.61,3.61,0,0,0-1.86-.48c-.84,0-1.2.26-1.2.6,0,1.1,3.9,0,3.9,2.57,0,1.2-1.12,2-3,2A5.59,5.59,0,0,1,90.72,8.84Z"/><path class="cls-1" d="M77.34,10.83v3.71h-.57l-2-2.51v2.51H74V10.83h.57l2.05,2.51V10.83Z"/><path class="cls-1" d="M78.72,10.84a.41.41,0,0,1,.42-.4.4.4,0,0,1,.43.39.41.41,0,0,1-.43.41A.41.41,0,0,1,78.72,10.84Zm.09.87h.66v2.83h-.66Z"/><path class="cls-1" d="M83.69,11.71v2.4a1.34,1.34,0,0,1-1.53,1.5,2.28,2.28,0,0,1-1.38-.4l.3-.5a1.68,1.68,0,0,0,1,.34c.63,0,.91-.29.91-.86V14a1.28,1.28,0,0,1-1,.38A1.36,1.36,0,0,1,80.64,13a1.35,1.35,0,0,1,1.44-1.36,1.24,1.24,0,0,1,1,.4v-.37ZM83,13a.87.87,0,0,0-1.73,0A.87.87,0,0,0,83,13Z"/><path class="cls-1" d="M87.75,13.34H85.53a.86.86,0,0,0,.92.68,1,1,0,0,0,.77-.31l.35.41a1.6,1.6,0,0,1-2.71-1,1.41,1.41,0,0,1,1.47-1.45,1.37,1.37,0,0,1,1.43,1.46A1.48,1.48,0,0,1,87.75,13.34Zm-2.23-.44h1.61a.77.77,0,0,0-.8-.69A.78.78,0,0,0,85.52,12.9Z"/><path class="cls-1" d="M90.58,11.68v.63l-.16,0a.78.78,0,0,0-.82.88v1.37h-.66V11.71h.63v.41A1.1,1.1,0,0,1,90.58,11.68Z"/><path class="cls-1" d="M91.58,10.84a.41.41,0,0,1,.43-.4.4.4,0,0,1,.42.39.4.4,0,0,1-.42.41A.41.41,0,0,1,91.58,10.84Zm.09.87h.67v2.83h-.67Z"/><path class="cls-1" d="M96.11,12.88v1.66h-.62V14.2a1,1,0,0,1-.89.38c-.65,0-1.06-.36-1.06-.85s.32-.84,1.18-.84h.73v-.05c0-.38-.23-.61-.71-.61a1.41,1.41,0,0,0-.86.28L93.62,12a2,2,0,0,1,1.2-.35C95.64,11.68,96.11,12.06,96.11,12.88Zm-.66.78v-.33h-.68c-.46,0-.58.17-.58.37s.2.4.54.4A.72.72,0,0,0,95.45,13.66Z"/></g></g></svg>